<svg width="18" height="15" viewBox="0 0 18 15" fill="none" xmlns="http://www.w3.org/2000/svg">
<path d="M16.1835 4.03756C16.1945 4.18856 16.1945 4.33956 16.1945 4.49156C16.1945 9.09656 12.6885 14.4036 6.2815 14.4036C4.3075 14.4036 2.4735 13.8316 0.9305 12.8396C1.2115 12.8716 1.4815 12.8816 1.7725 12.8816C3.4015 12.8816 4.8995 12.3316 6.0975 11.3936C4.5655 11.3616 3.2825 10.3576 2.8405 8.97656C3.0555 9.00856 3.2715 9.03056 3.4965 9.03056C3.8105 9.03056 4.1235 8.98756 4.4145 8.91256C2.8185 8.58856 1.6205 7.18656 1.6205 5.49356C1.6205 5.48256 1.6205 5.46056 1.6205 5.45056C2.0845 5.70856 2.6235 5.87056 3.1955 5.89256C2.2575 5.26656 1.6425 4.19856 1.6425 2.99156C1.6425 2.34456 1.8155 1.75056 2.1175 1.23256C3.8325 3.34756 6.4105 4.72856 9.3015 4.87856C9.2465 4.61956 9.2145 4.34956 9.2145 4.07956C9.2145 2.16056 10.7685 0.596558 12.6985 0.596558C13.7015 0.596558 14.6075 1.01656 15.2445 1.69656C16.0315 1.54556 16.7855 1.25456 17.4555 0.855558C17.1965 1.66456 16.6465 2.34456 15.9235 2.77456C16.6255 2.69956 17.3045 2.50556 17.9305 2.23556C17.4555 2.92556 16.8625 3.54156 16.1835 4.03756Z" fill="white"/>
</svg>
