<svg width="15" height="17" viewBox="0 0 15 17" fill="none" xmlns="http://www.w3.org/2000/svg">
<path fill-rule="evenodd" clip-rule="evenodd" d="M3.1975 0C3.3985 0.588 3.6065 1.186 3.8145 1.774C4.1185 2.656 4.3085 3.32 4.3945 3.785V6.356H5.3425V3.785L6.4905 0H5.5225L4.8775 2.495L4.2045 0H3.1975ZM7.7615 6.422C8.1985 6.422 8.5305 6.261 8.7675 5.938C8.9485 5.701 9.0325 5.321 9.0325 4.818V3.158C9.0325 2.655 8.9485 2.285 8.7675 2.048C8.5295 1.727 8.1975 1.565 7.7615 1.565C7.3335 1.565 7.0015 1.726 6.7665 2.048C6.5855 2.286 6.5005 2.656 6.5005 3.159V4.819C6.5005 5.322 6.5855 5.692 6.7665 5.939C7.0015 6.261 7.3335 6.422 7.7615 6.422ZM7.3535 2.988C7.3535 2.552 7.4865 2.334 7.7615 2.334C8.0465 2.334 8.1695 2.552 8.1695 2.988V4.98C8.1695 5.417 8.0465 5.644 7.7615 5.644C7.4865 5.644 7.3535 5.416 7.3535 4.98V2.988ZM9.7355 5.36C9.7355 5.701 9.7625 5.928 9.8105 6.071C9.8955 6.309 10.0945 6.422 10.3695 6.422C10.6845 6.422 11.0065 6.232 11.3475 5.834V6.356H12.2105V1.622H11.3475V5.236C11.1575 5.511 10.9775 5.644 10.8075 5.644C10.6935 5.644 10.6275 5.569 10.6085 5.436C10.5985 5.416 10.5985 5.303 10.5985 5.103V1.622H9.7355V5.36ZM13.0935 11.811V12.247H12.2395V11.811C12.2395 11.384 12.3825 11.165 12.6665 11.165C12.9505 11.166 13.0935 11.384 13.0935 11.811ZM14.7435 8.785C14.5725 8.035 13.9555 7.485 13.2255 7.4C11.4795 7.21 9.7145 7.21 7.9595 7.21C6.2045 7.21 4.4395 7.21 2.7035 7.4C1.9655 7.485 1.3575 8.035 1.1775 8.785C0.940496 9.847 0.930496 11.005 0.930496 12.105C0.930496 13.196 0.930496 14.362 1.1775 15.425C1.3485 16.175 1.9655 16.725 2.6955 16.801C4.4405 17 6.2055 17 7.9605 17C9.7155 17 11.4805 17 13.2265 16.801C13.9555 16.725 14.5635 16.175 14.7445 15.425C14.9815 14.363 14.9915 13.196 14.9915 12.105L14.9915 12.091V12.091C14.9905 10.9952 14.9894 9.84249 14.7435 8.785ZM3.9295 9.743H4.9435V8.851H1.9835V9.743H2.9805V15.141H3.9295V9.743ZM7.5055 15.141H6.6605V14.629C6.3185 15.018 5.9965 15.208 5.6925 15.208C5.4185 15.208 5.2185 15.094 5.1425 14.857C5.0945 14.715 5.0665 14.496 5.0665 14.165V10.456H5.9115V13.909C5.9115 14.109 5.9115 14.213 5.9205 14.242C5.9405 14.374 6.0065 14.441 6.1195 14.441C6.2915 14.441 6.4715 14.309 6.6605 14.043V10.457H7.5055V15.141ZM10.6455 14.685C10.7115 14.486 10.7315 14.174 10.7315 13.737V11.868C10.7315 11.431 10.7115 11.119 10.6455 10.929C10.5415 10.578 10.3035 10.398 9.9715 10.398C9.6585 10.398 9.3635 10.568 9.0885 10.91V8.851H8.2455V15.141H9.0885V14.685C9.3735 15.036 9.6685 15.207 9.9715 15.207C10.3035 15.207 10.5415 15.027 10.6455 14.685ZM13.9375 12.959H12.2395V13.784C12.2395 14.221 12.3825 14.438 12.6765 14.438C12.8855 14.438 13.0085 14.325 13.0565 14.097C13.0655 14.05 13.0755 13.86 13.0755 13.518H13.9385V13.642C13.9385 13.917 13.9385 14.107 13.9195 14.192C13.8995 14.381 13.8235 14.552 13.7205 14.704C13.4915 15.036 13.1415 15.207 12.6965 15.207C12.2505 15.207 11.9175 15.046 11.6715 14.723C11.4915 14.495 11.3965 14.125 11.3965 13.622V11.981C11.3965 11.478 11.4825 11.118 11.6625 10.88C11.9095 10.557 12.2415 10.396 12.6785 10.396C13.1065 10.396 13.4375 10.557 13.6835 10.88C13.8555 11.117 13.9405 11.477 13.9405 11.981V12.959H13.9375ZM9.8865 13.803V11.801C9.8865 11.384 9.7625 11.166 9.5165 11.166C9.3735 11.166 9.2315 11.232 9.0885 11.375V14.23C9.2315 14.372 9.3735 14.438 9.5165 14.438C9.7625 14.438 9.8865 14.23 9.8865 13.803Z" fill="white"/>
</svg>
